<svg id="Layer_1" data-name="Layer 1" xmlns="http://www.w3.org/2000/svg" viewBox="0 0 48 35.73"><title>defense</title><path d="M34.62,27.16H7.5a7.36,7.36,0,1,0,0,14.71H34.62A7.36,7.36,0,1,0,34.62,27.16ZM7.76,36.78A2.27,2.27,0,1,1,10,34.51,2.27,2.27,0,0,1,7.76,36.78Zm13.3,0a2.27,2.27,0,1,1,2.27-2.27A2.27,2.27,0,0,1,21.06,36.78Zm13.3,0a2.27,2.27,0,1,1,2.27-2.27A2.27,2.27,0,0,1,34.35,36.78Z" transform="translate(0 -6.13)"/><path d="M46.43,9.45h-17l-1-3.14a0.27,0.27,0,0,0-.25-0.18H14a0.26,0.26,0,0,0-.25.19l-3.1,11.53a4.85,4.85,0,0,0-3.58,1.52c-2,2.16-1.72,5.81-1.7,6a0.26,0.26,0,0,0,.26.24H36.48a0.26,0.26,0,0,0,.26-0.26c0-5.48-3.57-6.64-4.4-6.83L30.47,12.6h16A1.57,1.57,0,1,0,46.43,9.45Z" transform="translate(0 -6.13)"/></svg>