<svg id="Layer_1" data-name="Layer 1" xmlns="http://www.w3.org/2000/svg" viewBox="0 0 898.13 657.88"><title>education</title><path d="M546.08,690.84c-8.85-4.83-24-13.15-33.58-18.49s-23.12-12.67-30-16.3-13.06-7-13.75-7.48-6.31-3.59-12.5-6.9-23.06-12.49-37.5-20.4-32.16-17.59-39.37-21.52-18.47-10.08-25-13.67-20.73-11.33-31.56-17.19l-19.69-10.65V485.36c0-49.29.42-73.16,1.3-73.7a2.71,2.71,0,0,1,2.81.36c0.83,0.64,5.73,3.43,10.88,6.2s24,13,41.88,22.8c31.71,17.34,38.54,21.07,82.5,45.05l34.38,18.75,28.75,15.65c8.59,4.67,22.38,12.25,30.63,16.86s17.63,9.79,20.85,11.54L563,552l18.52-10.28c10.19-5.66,29.77-16.39,43.52-23.86l36.88-20,19.38-10.54c4.13-2.25,14-7.6,21.88-11.89s19.44-10.59,25.63-14c12.88-7.1,47.9-26.26,74.2-40.61,9.87-5.38,18.45-9.79,19.06-9.79s1.12,31.34,1.12,73.79c0,69.13-.14,73.84-2.19,74.6-1.2.45-9.78,5-19.06,10.13-35.74,19.74-55,30.22-55.45,30.22-0.28,0-12.24,6.52-26.59,14.5s-34.24,18.87-44.21,24.22c-25.86,13.88-30.56,16.44-55,30-29.95,16.63-53,29-56.6,30.37-1,.4-9-3.2-17.94-8.07h0ZM185.94,658.28c-1.44-1.77-24-85.6-24.05-89.25,0-.78,5.76-3,12.8-4.84q20.61-5.52,52.19-14.11L240,546.5l0.32-97.7,0.32-97.7-7.82-3.93c-4.3-2.16-25-13.21-45.95-24.55-47.54-25.71-56.39-30.49-65-35.09-3.78-2-6.87-4.43-6.87-5.36,0-1.71,12.78-9,56.88-32.33,13.41-7.1,37.31-19.94,53.13-28.53s33.81-18.27,40-21.51c15.23-8,23.79-12.55,77.5-41.47,25.44-13.7,48.78-26.22,51.88-27.84s22.78-12.18,43.75-23.49,42.91-23.1,48.75-26.2c27.44-14.58,51.66-27.54,62.38-33.36,6.46-3.51,12.88-6.38,14.26-6.38s19.44,9.11,40.12,20.24c43.35,23.33,58.46,31.42,77.62,41.6,11.68,6.2,66.84,35.87,101.25,54.46,5.5,3,11.69,6.24,13.75,7.26s20.63,11,41.25,22.12,42.56,22.94,48.75,26.22l20.63,10.94c5.16,2.74,23.16,12.42,40,21.52s35.69,19.23,41.88,22.52c18.27,9.71,24.38,13.3,24.38,14.36S990,296.1,944.38,320.19c-6.53,3.45-20.88,11.16-31.88,17.13s-32.94,17.78-48.75,26.24S817,388.62,795,400.47,749.37,425,742.5,428.6,711.72,445,689.37,457c-58.7,31.53-58.27,31.3-71.25,38.14-6.53,3.44-21,11.24-32.23,17.32s-21.18,11.06-22.18,11.06c-2.21,0-11.48-4.82-72.47-37.71C465.12,471.77,437.56,457,430,453c-20.95-11.08-78.26-41.93-82.5-44.4-2.06-1.2-11.62-6.29-21.25-11.29s-22.28-11.75-28.12-15-13-7.09-16-8.59L276.84,371l0.05,132.08c0,72.65-.15,132.29-0.4,132.53a89,89,0,0,1-9.72,2.86c-5.1,1.32-16.87,4.46-26.15,7s-24.19,6.5-33.12,8.88-17.15,4.61-18.26,4.95a3.34,3.34,0,0,1-3.3-1h0ZM583.09,302.73c32.54-9,40.65-36.38,15.85-53.47-25-17.22-72.05-10.61-83.21,11.68-3.67,7.33-4.1,11.14-2,18.19,5.9,20.29,39.78,31.81,69.41,23.59h0Z" transform="translate(-115 -41.06)"/></svg>