<svg id="Layer_1" data-name="Layer 1" xmlns="http://www.w3.org/2000/svg" viewBox="0 0 65 65"><title>international</title><path d="M40,7.5A32.5,32.5,0,1,0,72.5,40,32.54,32.54,0,0,0,40,7.5ZM29.86,13A29.6,29.6,0,0,0,25.25,21q-3.12-.39-6.15-0.95A29,29,0,0,1,29.86,13ZM16.49,23.25c2.48,0.51,5,.94,7.57,1.27A54.21,54.21,0,0,0,22,38.19H11.17A28.72,28.72,0,0,1,16.49,23.25Zm0,33.51a28.7,28.7,0,0,1-5.32-14.95H22a54.29,54.29,0,0,0,2.08,13.67C21.49,55.82,19,56.25,16.49,56.75Zm2.62,3.16q3-.56,6.15-0.95A29.57,29.57,0,0,0,29.86,67,29,29,0,0,1,19.1,59.92Zm19.09,8.73C34.58,67.7,31.33,64,29,58.56q4.51-.41,9.16-0.48V68.64Zm0-14.18c-3.53,0-7,.24-10.45.58a50.21,50.21,0,0,1-2.16-13.25h12.6V54.47h0Zm0-16.27H25.59a50.17,50.17,0,0,1,2.16-13.24c3.42,0.34,6.92.53,10.45,0.58V38.19h0Zm0-16.27q-4.64-.07-9.16-0.48c2.3-5.39,5.54-9.13,9.16-10.08V21.92Zm22.7-1.84q-3,.56-6.15.95A29.61,29.61,0,0,0,50.14,13,29,29,0,0,1,60.9,20.08ZM41.81,11.36C45.42,12.31,48.67,16,51,21.44q-4.51.41-9.16,0.48V11.36Zm0,14.18q5.3-.07,10.45-0.58a50.17,50.17,0,0,1,2.16,13.24H41.81V25.53Zm0,16.27H54.41a50.3,50.3,0,0,1-2.16,13.24c-3.43-.34-6.92-0.53-10.45-0.58V41.81h0Zm0,26.84V58.08q4.64,0.07,9.16.48C48.67,63.95,45.42,67.69,41.81,68.64ZM50.14,67A29.57,29.57,0,0,0,54.75,59c2.08,0.26,4.13.58,6.15,0.95A28.94,28.94,0,0,1,50.14,67ZM63.51,56.75q-3.72-.76-7.57-1.27A54.26,54.26,0,0,0,58,41.81h10.8A28.74,28.74,0,0,1,63.51,56.75Zm5.32-18.56H58a54.3,54.3,0,0,0-2.08-13.67q3.85-.51,7.57-1.28A28.72,28.72,0,0,1,68.83,38.19Z" transform="translate(-7.5 -7.5)"/></svg>