<svg id="Layer_1" data-name="Layer 1" xmlns="http://www.w3.org/2000/svg" viewBox="0 0 100 100"><title>medicine</title><path d="M69.09,6.55c-3.16-2.59-5.35-2-8.52,3.66a7.64,7.64,0,0,1-7.46,4.07V13.53a7.18,7.18,0,1,0-6.27,0v0.75a7.64,7.64,0,0,1-7.45-4.07C36.26,4.57,34.06,4,30.91,6.55S15.24,24.08,0,22.71A10,10,0,0,0,11.26,28s4.4,4.57,11.54,1.37c0,0,3.71,3.35,9.62.3,0,0,4.39,3.35,9.07.46a8.31,8.31,0,0,0,5.58,1.42l0.19,17.25c-0.33-.06-0.6-0.14-1-0.21,0,0-5.12-1.1-10.51-2.61-5.19-1.36-10.9-3.57-11.74-4.72a1.29,1.29,0,0,1,.34-0.2,9,9,0,0,1,2.19-.69,48.22,48.22,0,0,1,7.09-.69c5.16-.19,6.09,0,6.19.06,0-.16,3,0.35,3.81-2.69a0.75,0.75,0,0,0,0-.22c-0.17-2.09-1.78-2.19-3.09-2.44a14.65,14.65,0,0,0-3.9-.13c-4.73.35-19.29-.83-21.13,6.84a3.53,3.53,0,0,1,0,.54C16.12,48.36,29.94,51.26,40,53.26A13.57,13.57,0,0,0,34,62.52c-0.35,4.17,3,8.14,10.66,12.58-5.85,4.14-9.69,8-9.37,12.72,0.55,3.83,3.93,8.94,10.57,12.17h0.06s-4.65-7.09-5-11c-0.31-2.27,1-5.61,6.63-9.64l0.16,14.18h0a2.14,2.14,0,1,0,4.28,0h0l0.19-13.81c5.21,3.86,6.39,7.07,6.09,9.27-0.31,3.88-5,11-5,11h0.06c6.63-3.22,10-8.34,10.56-12.17,0.31-4.69-3.53-8.58-9.37-12.72,7.69-4.44,11-8.41,10.66-12.58a13.56,13.56,0,0,0-5.94-9.27c10-2,23.83-4.89,24.45-11.57a3.53,3.53,0,0,1,0-.54C82,33.48,67.4,34.66,62.67,34.31a14.69,14.69,0,0,0-3.9.13c-1.31.24-2.92,0.35-3.09,2.44a0.71,0.71,0,0,0,0,.22c0.82,3,3.8,2.52,3.81,2.69,0.08,0,1-.24,6.18-0.06a48.35,48.35,0,0,1,7.08.69,8.94,8.94,0,0,1,2.19.69,1.37,1.37,0,0,1,.35.2c-0.84,1.15-6.54,3.36-11.74,4.72-5.4,1.51-10.51,2.61-10.52,2.61l-0.36.08L52.9,31.59a8.28,8.28,0,0,0,5.62-1.42c4.67,2.9,9.07-.46,9.07-0.46,5.9,3,9.61-.3,9.61-0.3C84.34,32.61,88.74,28,88.74,28A10,10,0,0,0,100,22.71C84.75,24.08,72.25,9.14,69.09,6.55ZM43.27,67.71c-1.91-1.18-2.8-2.79-2.62-3.87,0.1-1.5-.42-5.09,6.7-7.7l0.16,14.25ZM58.7,63.84c0.18,1.08-.72,2.68-2.62,3.87-1.25.8-2.47,1.56-3.67,2.32l0.18-13.67C59.08,59,58.59,62.39,58.7,63.84Z"/></svg>