<svg id="Layer_1" data-name="Layer 1" xmlns="http://www.w3.org/2000/svg" viewBox="0 0 30.75 31.1"><defs><style>.cls-1{fill:none;}</style></defs><title>science</title><path d="M30.9,26.7L28,22.2a10.59,10.59,0,0,1-2.7.3,19.14,19.14,0,0,1-7.5-1.8A20.62,20.62,0,0,0,5.9,19.3L1.1,26.7A3.07,3.07,0,0,0,1,29.9a3.15,3.15,0,0,0,2.7,1.6H28.2a2.92,2.92,0,0,0,2.7-1.6A3.07,3.07,0,0,0,30.9,26.7Z" transform="translate(-0.6 -0.4)"/><line class="cls-1" x1="14.4" y1="23" x2="15.4" y2="23"/><line class="cls-1" x1="16.2" y1="24.9" x2="17.3" y2="24.9"/><line class="cls-1" x1="14.2" y1="26.1" x2="15.2" y2="26.1"/><path d="M26.6,20.1l-5.8-9V2h1.9a0.79,0.79,0,0,0,.8-0.8A0.79,0.79,0,0,0,22.7.4H9.2a0.79,0.79,0,0,0-.8.8,0.79,0.79,0,0,0,.8.8h1.9v9.1L7,17.6a21.17,21.17,0,0,1,11.5,1.7c3.7,1.7,6.6,1.9,8.6,1.5ZM15,8.6H13.1a0.8,0.8,0,0,1,0-1.6H15A0.8,0.8,0,0,1,15,8.6Zm0-3.1H13.1a0.8,0.8,0,1,1,0-1.6H15a0.79,0.79,0,0,1,.8.8A0.86,0.86,0,0,1,15,5.5Z" transform="translate(-0.6 -0.4)"/></svg>