<svg id="Layer_1" data-name="Layer 1" xmlns="http://www.w3.org/2000/svg" viewBox="0 0 62.83 88.54"><defs><style>.cls-1{fill:#010101;}</style></defs><title>scienceCup</title><path class="cls-1" d="M50,19.22c-12.72,0-25.87-2.06-25.87-5.5S37.28,8.22,50,8.22s25.87,2.06,25.87,5.5S62.72,19.22,50,19.22ZM50,8.66c-15.21,0-25.43,2.62-25.43,5.06S34.79,18.78,50,18.78s25.43-2.62,25.43-5.06S65.21,8.66,50,8.66Z" transform="translate(-18.58 -5.73)"/><path class="cls-1" d="M78.38,17c-2,2.83-14.19,5-28.42,5-14,0-26.18-2.09-28.35-4.87l-0.33-.43,0.13,1,0,0C24.27,20.45,36,22.43,50,22.43c14.17,0,25.93-2,28.61-4.91l0,0,0.1-1Z" transform="translate(-18.58 -5.73)"/><path class="cls-1" d="M50.58,94.27c-9.33,0-19.18-1.43-20-4.17l0-.06,0-3.82c0-.07,0-0.25-0.09-0.44a8,8,0,0,1-.18-1L20.83,15.2c-1.49-.81-2.24-1.7-2.24-2.65,0-4.43,16.19-6.82,31.42-6.82s31.41,2.39,31.41,6.82c0,0.94-.74,1.83-2.2,2.63L70.86,84.79a7.46,7.46,0,0,1-.17,1c0,0.19-.07.37-0.08,0.43l0,3.83,0,0.06C69.77,92.84,59.92,94.27,50.58,94.27ZM31.48,89.91c0.62,1.69,8.38,3.48,19.11,3.48s18.49-1.79,19.11-3.48l0-3.72a4,4,0,0,1,.1-0.58c0-.23.13-0.63,0.15-0.78h0V84.73L78.4,14.61l0.21-.11c1.26-.66,1.93-1.34,1.93-2C80.54,9.74,68,6.61,50,6.61S19.46,9.74,19.46,12.55c0,0.63.68,1.32,2,2l0.2,0.1,9.55,70.2h0c0,0.15.1,0.52,0.15,0.75a3.69,3.69,0,0,1,.11.6Z" transform="translate(-18.58 -5.73)"/><path class="cls-1" d="M69.83,86l0,0.09c-0.88,2-9.33,3.5-19.24,3.5S32.18,88,31.3,86.07l0-.09H30.8l0.08,0.2C31.77,88.4,40,90,50.55,90s18.78-1.61,19.67-3.83l0.08-.2H69.83Z" transform="translate(-18.58 -5.73)"/><path class="cls-1" d="M62.19,51a13.91,13.91,0,0,0,3.61-5.56,3.85,3.85,0,0,0-.26-3c-0.82-1.42-2.69-2.17-5.4-2.17a19.92,19.92,0,0,0-4.13.48c-1.35-4.2-3.51-6.88-6-6.88s-4.66,2.68-6,6.88a19.92,19.92,0,0,0-4.13-.48c-2.71,0-4.58.75-5.4,2.17a3.86,3.86,0,0,0-.26,3A13.91,13.91,0,0,0,37.81,51a13.92,13.92,0,0,0-3.61,5.56,3.86,3.86,0,0,0,.26,3c0.82,1.42,2.69,2.17,5.4,2.17h0A19.93,19.93,0,0,0,44,61.26c1.35,4.2,3.51,6.88,6,6.88s4.66-2.68,6-6.88a19.92,19.92,0,0,0,4.13.48c2.71,0,4.58-.75,5.4-2.17a3.85,3.85,0,0,0,.26-3A13.91,13.91,0,0,0,62.19,51ZM60.14,41c2.38,0,4.06.63,4.73,1.78A3.11,3.11,0,0,1,65,45.24a13.17,13.17,0,0,1-3.41,5.2,35.88,35.88,0,0,0-4.4-3.63,31.59,31.59,0,0,0-1-5.33A19.05,19.05,0,0,1,60.14,41Zm-6.8,15.71A37,37,0,0,1,50,58.44a37,37,0,0,1-3.33-1.7c-1.1-.63-2.15-1.3-3.15-2-0.12-1.21-.19-2.47-0.19-3.76s0.07-2.55.19-3.76c1-.69,2-1.36,3.15-2A37.1,37.1,0,0,1,50,43.56a36.9,36.9,0,0,1,3.33,1.7c1.1,0.63,2.15,1.3,3.14,2,0.12,1.21.19,2.47,0.19,3.76s-0.07,2.55-.19,3.76C55.48,55.45,54.43,56.12,53.33,56.75Zm3-1a30.48,30.48,0,0,1-.93,4.56A31.45,31.45,0,0,1,51,58.86c0.93-.44,1.85-0.92,2.76-1.44S55.52,56.34,56.36,55.78ZM49,58.86a31.41,31.41,0,0,1-4.47,1.48,30.6,30.6,0,0,1-.93-4.56c0.84,0.57,1.72,1.12,2.64,1.64S48.11,58.42,49,58.86Zm-6.36-4.7A34.89,34.89,0,0,1,38.92,51a34.89,34.89,0,0,1,3.76-3.16c-0.08,1-.12,2.07-0.12,3.16S42.6,53.13,42.68,54.16Zm1-7.93a30.54,30.54,0,0,1,.93-4.56A31.5,31.5,0,0,1,49,43.14c-0.93.44-1.85,0.92-2.76,1.44S44.48,45.66,43.64,46.22ZM51,43.14a31.51,31.51,0,0,1,4.47-1.48,30.59,30.59,0,0,1,.93,4.56c-0.84-.57-1.72-1.12-2.64-1.64S51.89,43.58,51,43.14Zm6.36,4.7A34.94,34.94,0,0,1,61.08,51a34.89,34.89,0,0,1-3.76,3.16c0.08-1,.12-2.07.12-3.16S57.4,48.87,57.32,47.84ZM50,34.63c2.08,0,4,2.49,5.21,6.29A32.94,32.94,0,0,0,50,42.7a32.94,32.94,0,0,0-5.21-1.79C46,37.12,47.92,34.63,50,34.63ZM35.14,42.82C35.81,41.67,37.48,41,39.87,41a19.09,19.09,0,0,1,3.91.45,31.63,31.63,0,0,0-1,5.33,35.85,35.85,0,0,0-4.4,3.63A13.17,13.17,0,0,1,35,45.24,3.11,3.11,0,0,1,35.14,42.82ZM39.87,61h0c-2.38,0-4.06-.63-4.73-1.78A3.11,3.11,0,0,1,35,56.76a13.17,13.17,0,0,1,3.41-5.2,35.91,35.91,0,0,0,4.4,3.63,31.6,31.6,0,0,0,1,5.33A19.08,19.08,0,0,1,39.87,61ZM50,67.37c-2.08,0-4-2.49-5.21-6.29A32.94,32.94,0,0,0,50,59.3a32.92,32.92,0,0,0,5.21,1.79C54,64.88,52.08,67.37,50,67.37Zm14.86-8.18C64.19,60.33,62.52,61,60.14,61a19.09,19.09,0,0,1-3.91-.45,31.6,31.6,0,0,0,1-5.33,35.88,35.88,0,0,0,4.4-3.63A13.17,13.17,0,0,1,65,56.76,3.11,3.11,0,0,1,64.86,59.18Z" transform="translate(-18.58 -5.73)"/><path class="cls-1" d="M50,53.55A2.55,2.55,0,1,1,52.56,51,2.56,2.56,0,0,1,50,53.55Zm0-4.32A1.77,1.77,0,1,0,51.78,51,1.78,1.78,0,0,0,50,49.23Z" transform="translate(-18.58 -5.73)"/></svg>